# xmcd CD database file
#
# Track frame offsets:
#	150
#	21162
#	35920
#	69750
#
# Disc length: 1207 seconds
#
# Revision: 0
# Processed by: cddbd v1.5.1PL0 Copyright (c) Steve Scherf et al.
# Submitted via: CDex 1.51
#
DISCID=2d04b504
DTITLE=キンモクセイ - メロディ
DYEAR=2004
DGENRE=JPop
TTITLE0=メロディ
TTITLE1=君とチンパンジー
TTITLE2=二人のアカボシ LIVE at 日比谷野外大音楽堂 2004.4.25
TTITLE3=メロディ（オリジナル・カラオケ）
EXTD=YEAR: 2004
EXTT0=
EXTT1=
EXTT2=
EXTT3=
PLAYORDER=
